<?xml version="1.0" standalone="no"?>
<!DOCTYPE svg PUBLIC "-//W3C//DTD SVG 20010904//EN"
 "http://www.w3.org/TR/2001/REC-SVG-20010904/DTD/svg10.dtd">
<svg version="1.0" xmlns="http://www.w3.org/2000/svg"
 width="923.000000pt" height="1280.000000pt" viewBox="0 0 923.000000 1280.000000"
 preserveAspectRatio="xMidYMid meet">
<metadata>
Created by potrace 1.15, written by Peter Selinger 2001-2017
</metadata>
<g transform="translate(0.000000,1280.000000) scale(0.100000,-0.100000)"
fill="#000000" stroke="none">
<path d="M7920 12785 c-139 -30 -293 -96 -439 -188 -90 -57 -119 -53 -343 50
-143 65 -210 83 -305 83 -124 0 -244 -51 -398 -169 -67 -52 -85 -61 -120 -61
-65 0 -133 25 -235 86 -110 67 -164 89 -241 99 -116 14 -310 -37 -524 -139
l-114 -54 -113 23 c-62 13 -178 38 -258 55 -171 37 -335 48 -435 31 -100 -17
-204 -70 -275 -140 l-60 -59 0 -63 c0 -77 29 -317 64 -524 89 -541 266 -1316
447 -1960 574 -2045 1344 -3704 2192 -4720 l76 -90 -31 -8 -31 -8 6 -87 c9
-120 39 -229 97 -348 l49 -102 -109 -328 c-304 -917 -451 -1584 -527 -2384
-13 -140 -17 -286 -17 -600 -1 -228 3 -436 7 -462 7 -43 12 -49 80 -96 198
-136 528 -261 955 -361 144 -34 363 -73 370 -66 15 14 22 687 12 1089 -11 443
-9 582 4 324 3 -73 13 -254 21 -403 8 -148 19 -416 25 -595 6 -179 13 -353 16
-387 l6 -63 191 -2 191 -3 7 -33 c4 -18 10 -36 13 -40 11 -10 26 20 26 51 l0
27 58 -7 c86 -12 260 -8 322 6 49 11 189 57 196 64 2 1 -17 419 -42 927 -24
509 -62 1303 -84 1765 -22 462 -54 1118 -70 1458 -17 340 -30 631 -30 647 0
24 9 34 63 66 34 20 67 41 73 46 8 6 -19 89 -92 283 l-104 274 -11 381 c-15
537 -2 1191 66 3255 33 1031 39 1332 39 2176 l1 886 263 7 c145 3 290 9 323
13 l59 6 0 108 0 109 -112 0 c-62 0 -211 3 -330 7 l-218 6 0 28 c0 25 -5 29
-37 34 -21 4 -94 22 -163 40 -212 58 -321 67 -450 40z m-233 -11002 c-2 -16
-4 -5 -4 22 0 28 2 40 4 28 2 -13 2 -35 0 -50z"/>
<path d="M2640 12494 c-48 -9 -125 -37 -162 -57 -36 -20 -38 -23 -38 -73 l0
-53 -32 10 c-54 15 -256 57 -368 75 -141 23 -354 24 -439 1 -35 -9 -84 -28
-110 -40 -45 -23 -46 -25 -49 -74 l-3 -50 -80 18 c-222 52 -310 63 -504 64
-200 0 -237 -6 -338 -57 -35 -17 -37 -21 -37 -67 l0 -49 -48 -6 c-26 -3 -92
-8 -147 -11 -55 -3 -142 -11 -194 -17 l-94 -12 7 -80 c3 -45 6 -94 6 -109 l0
-28 236 7 237 7 -7 -964 c-4 -530 -11 -1763 -16 -2739 -14 -2521 -28 -5007
-36 -6276 l-7 -1090 140 -50 141 -50 328 77 c181 43 335 78 341 79 10 0 12
-24 8 -100 l-5 -100 33 -13 c17 -7 82 -31 143 -52 l110 -38 355 85 354 85 3
-102 3 -102 142 -52 142 -52 385 94 c212 52 408 100 437 107 l51 12 454 -181
c250 -100 456 -181 458 -181 5 0 -410 12147 -415 12166 -2 7 -94 0 -287 -22
-155 -18 -284 -33 -285 -34 -2 0 -4 -136 -5 -302 l-3 -303 -2 297 c-3 270 -5
298 -21 307 -19 10 -209 54 -337 78 -78 14 -395 26 -445 17z m817 -1441 c-1
-49 -3 -9 -3 87 0 96 2 136 3 88 2 -49 2 -127 0 -175z m10 -1335 c-1 -46 -3
-9 -3 82 0 91 2 128 3 83 2 -46 2 -120 0 -165z"/>
</g>
</svg>
